<svg width="179" height="21" viewBox="0 0 179 21" fill="none" xmlns="http://www.w3.org/2000/svg">
<path d="M14.12 14.12H15.268C15.3427 14.4187 15.408 14.7827 15.464 15.212C15.5387 15.6227 15.5947 16.0707 15.632 16.556C15.688 17.0227 15.7253 17.4893 15.744 17.956C15.7627 18.4227 15.772 18.8427 15.772 19.216C15.1187 19.6267 14.2973 19.916 13.308 20.084C12.3373 20.252 11.3387 20.336 10.312 20.336C8.76267 20.336 7.35333 20.1493 6.084 19.776C4.83333 19.384 3.76 18.7773 2.864 17.956C1.98667 17.116 1.30533 16.0613 0.82 14.792C0.334667 13.504 0.092 11.964 0.092 10.172C0.092 8.39867 0.353333 6.87733 0.876 5.608C1.41733 4.32 2.136 3.26533 3.032 2.444C3.928 1.62267 4.964 1.02533 6.14 0.651999C7.33467 0.259999 8.58533 0.0639997 9.892 0.0639997C11.124 0.0639997 12.2347 0.157333 13.224 0.343999C14.232 0.511999 15.0533 0.745333 15.688 1.044C15.688 1.34267 15.6693 1.72533 15.632 2.192C15.6133 2.65867 15.5667 3.15333 15.492 3.676C15.436 4.18 15.3613 4.684 15.268 5.188C15.1933 5.67333 15.1187 6.084 15.044 6.42H13.868L12.328 2.192C12.16 2.09867 11.8893 2.024 11.516 1.968C11.1427 1.912 10.76 1.884 10.368 1.884C9.60267 1.884 8.884 2.04267 8.212 2.36C7.54 2.65867 6.94267 3.144 6.42 3.816C5.89733 4.488 5.48667 5.356 5.188 6.42C4.88933 7.46533 4.74 8.72533 4.74 10.2C4.74 12.8693 5.272 14.9227 6.336 16.36C7.4 17.7973 8.84667 18.516 10.676 18.516C11.1987 18.516 11.6373 18.4787 11.992 18.404C12.3653 18.3107 12.6173 18.1893 12.748 18.04L14.12 14.12ZM30.64 20H21.008V18.936C21.3813 18.7867 21.8013 18.6373 22.268 18.488C22.7533 18.32 23.2387 18.1987 23.724 18.124V2.22H20.476L18.684 7.008H17.536C17.4613 6.63467 17.3867 6.15867 17.312 5.58C17.2373 5.00133 17.172 4.404 17.116 3.788C17.06 3.172 17.0133 2.56533 16.976 1.968C16.9387 1.352 16.92 0.829332 16.92 0.399999H34.756C34.756 0.847998 34.7373 1.37067 34.7 1.968C34.6627 2.56533 34.616 3.172 34.56 3.788C34.504 4.404 34.4387 5.00133 34.364 5.58C34.2893 6.14 34.2147 6.616 34.14 7.008H32.964L31.172 2.22H27.924V18.124C28.4093 18.2173 28.8853 18.3293 29.352 18.46C29.8373 18.5907 30.2667 18.7493 30.64 18.936V20ZM49.7489 14.12H50.8969C50.9716 14.4187 51.0369 14.7827 51.0929 15.212C51.1676 15.6227 51.2236 16.0707 51.2609 16.556C51.3169 17.0227 51.3542 17.4893 51.3729 17.956C51.3916 18.4227 51.4009 18.8427 51.4009 19.216C50.7476 19.6267 49.9262 19.916 48.9369 20.084C47.9662 20.252 46.9676 20.336 45.9409 20.336C44.3916 20.336 42.9822 20.1493 41.7129 19.776C40.4622 19.384 39.3889 18.7773 38.4929 17.956C37.6156 17.116 36.9342 16.0613 36.4489 14.792C35.9636 13.504 35.7209 11.964 35.7209 10.172C35.7209 8.39867 35.9822 6.87733 36.5049 5.608C37.0462 4.32 37.7649 3.26533 38.6609 2.444C39.5569 1.62267 40.5929 1.02533 41.7689 0.651999C42.9636 0.259999 44.2142 0.0639997 45.5209 0.0639997C46.7529 0.0639997 47.8636 0.157333 48.8529 0.343999C49.8609 0.511999 50.6822 0.745333 51.3169 1.044C51.3169 1.34267 51.2982 1.72533 51.2609 2.192C51.2422 2.65867 51.1956 3.15333 51.1209 3.676C51.0649 4.18 50.9902 4.684 50.8969 5.188C50.8222 5.67333 50.7476 6.084 50.6729 6.42H49.4969L47.9569 2.192C47.7889 2.09867 47.5182 2.024 47.1449 1.968C46.7716 1.912 46.3889 1.884 45.9969 1.884C45.2316 1.884 44.5129 2.04267 43.8409 2.36C43.1689 2.65867 42.5716 3.144 42.0489 3.816C41.5262 4.488 41.1156 5.356 40.8169 6.42C40.5182 7.46533 40.3689 8.72533 40.3689 10.2C40.3689 12.8693 40.9009 14.9227 41.9649 16.36C43.0289 17.7973 44.4756 18.516 46.3049 18.516C46.8276 18.516 47.2662 18.4787 47.6209 18.404C47.9942 18.3107 48.2462 18.1893 48.3769 18.04L49.7489 14.12ZM54.0589 10.844H61.9549V13.364H54.0589V10.844ZM76.9148 2.276C76.4668 2.18267 76.0748 2.07067 75.7388 1.94C75.4028 1.79067 75.0761 1.632 74.7588 1.464V0.399999H81.5348V1.464C81.3295 1.61333 81.0495 1.76267 80.6948 1.912C80.3588 2.04267 79.9761 2.164 79.5468 2.276L74.1988 14.372C73.3028 16.4253 72.3695 17.956 71.3988 18.964C70.4281 19.9533 69.3921 20.3453 68.2908 20.14C68.1415 19.9907 67.9828 19.7667 67.8148 19.468C67.6655 19.1507 67.5161 18.824 67.3668 18.488C67.2361 18.1333 67.1241 17.7973 67.0308 17.48C66.9375 17.144 66.8815 16.864 66.8628 16.64L67.6468 15.52L70.9788 16.556C71.1281 16.388 71.2681 16.1827 71.3988 15.94C71.5295 15.6973 71.6508 15.4267 71.7628 15.128L64.3148 2.276C63.9601 2.18267 63.6148 2.07067 63.2788 1.94C62.9615 1.79067 62.6628 1.632 62.3828 1.464V0.399999H71.1188V1.464C70.5588 1.8 69.8495 2.07067 68.9908 2.276L72.9388 9.864L73.5268 11.656H73.5828L74.1428 9.808L76.9148 2.276ZM84.3794 2.276C83.5021 2.12667 82.7368 1.856 82.0834 1.464V0.399999H97.1194C97.1194 0.829332 97.1008 1.30533 97.0634 1.828C97.0261 2.35067 96.9794 2.87333 96.9234 3.396C96.8674 3.91867 96.8021 4.42267 96.7274 4.908C96.6528 5.39333 96.5781 5.832 96.5034 6.224H95.3554L93.6194 2.22H88.5794V8.604C88.7474 8.58533 88.9528 8.56667 89.1954 8.548C89.4381 8.51067 89.6808 8.48267 89.9234 8.464C90.1848 8.44533 90.4368 8.436 90.6794 8.436C90.9408 8.41733 91.1648 8.408 91.3514 8.408C92.3034 8.408 93.2088 8.51067 94.0674 8.716C94.9261 8.92133 95.6728 9.25733 96.3074 9.724C96.9608 10.172 97.4741 10.76 97.8474 11.488C98.2394 12.216 98.4354 13.0933 98.4354 14.12C98.4354 15.1093 98.2301 15.9773 97.8194 16.724C97.4274 17.4707 96.8768 18.096 96.1674 18.6C95.4768 19.0853 94.6461 19.4587 93.6754 19.72C92.7234 19.9627 91.6874 20.084 90.5674 20.084C90.4741 20.084 90.2408 20.0747 89.8674 20.056C89.4941 20.056 89.0741 20.0467 88.6074 20.028C88.1408 20.028 87.6741 20.0187 87.2074 20C86.7408 20 86.3674 20 86.0874 20H82.0834V18.936C82.4381 18.7307 82.8021 18.5627 83.1754 18.432C83.5674 18.2827 83.9688 18.18 84.3794 18.124V2.276ZM90.1474 10.228C89.8488 10.228 89.5594 10.2467 89.2794 10.284C88.9994 10.3027 88.7661 10.34 88.5794 10.396V18.152C88.6541 18.1707 88.7661 18.1893 88.9154 18.208C89.0834 18.2267 89.2514 18.2453 89.4194 18.264C89.5874 18.264 89.7461 18.264 89.8954 18.264C90.0634 18.264 90.1941 18.264 90.2874 18.264C91.3888 18.264 92.2474 17.9093 92.8634 17.2C93.4981 16.4907 93.8154 15.492 93.8154 14.204C93.8154 12.972 93.5261 12.0013 92.9474 11.292C92.3688 10.5827 91.4354 10.228 90.1474 10.228ZM100.553 10.2C100.553 8.744 100.758 7.4 101.169 6.168C101.58 4.91733 102.186 3.844 102.989 2.948C103.792 2.03333 104.781 1.324 105.957 0.819998C107.133 0.315999 108.486 0.0639997 110.017 0.0639997C111.548 0.0639997 112.901 0.315999 114.077 0.819998C115.253 1.324 116.233 2.03333 117.017 2.948C117.82 3.844 118.426 4.91733 118.837 6.168C119.248 7.4 119.453 8.744 119.453 10.2C119.453 11.656 119.248 13.0093 118.837 14.26C118.426 15.492 117.82 16.5653 117.017 17.48C116.233 18.376 115.253 19.076 114.077 19.58C112.901 20.084 111.548 20.336 110.017 20.336C108.486 20.336 107.133 20.084 105.957 19.58C104.781 19.076 103.792 18.376 102.989 17.48C102.186 16.5653 101.58 15.492 101.169 14.26C100.758 13.0093 100.553 11.656 100.553 10.2ZM105.313 10.2C105.313 11.3947 105.406 12.5053 105.593 13.532C105.78 14.54 106.069 15.4173 106.461 16.164C106.872 16.892 107.385 17.4707 108.001 17.9C108.636 18.3107 109.392 18.516 110.269 18.516C111.072 18.516 111.753 18.3107 112.313 17.9C112.873 17.4707 113.33 16.892 113.685 16.164C114.04 15.4173 114.292 14.54 114.441 13.532C114.609 12.5053 114.693 11.3947 114.693 10.2C114.693 9.00533 114.6 7.904 114.413 6.896C114.245 5.86933 113.965 4.992 113.573 4.264C113.2 3.51733 112.696 2.93867 112.061 2.528C111.445 2.09867 110.689 1.884 109.793 1.884C108.934 1.884 108.216 2.09867 107.637 2.528C107.058 2.93867 106.592 3.51733 106.237 4.264C105.901 4.992 105.658 5.86933 105.509 6.896C105.378 7.904 105.313 9.00533 105.313 10.2ZM127.626 18.124C128.13 18.1987 128.625 18.3107 129.11 18.46C129.614 18.5907 130.062 18.7493 130.454 18.936V20H121.13V18.936C121.485 18.7307 121.858 18.5627 122.25 18.432C122.661 18.3013 123.053 18.1987 123.426 18.124V2.276C122.997 2.20133 122.586 2.09867 122.194 1.968C121.802 1.81867 121.448 1.65067 121.13 1.464V0.399999H124.658C125.405 0.399999 126.254 0.362665 127.206 0.287998C128.177 0.213333 129.064 0.176 129.866 0.176C130.856 0.176 131.817 0.278666 132.75 0.483999C133.702 0.670666 134.542 0.997332 135.27 1.464C136.017 1.93067 136.614 2.556 137.062 3.34C137.51 4.10533 137.734 5.06667 137.734 6.224C137.734 7.32533 137.51 8.27733 137.062 9.08C136.633 9.88267 136.054 10.5453 135.326 11.068C134.598 11.5907 133.758 11.9827 132.806 12.244C131.854 12.4867 130.874 12.608 129.866 12.608C129.773 12.608 129.624 12.608 129.418 12.608C129.213 12.608 128.989 12.608 128.746 12.608C128.522 12.5893 128.298 12.58 128.074 12.58C127.869 12.5613 127.72 12.5427 127.626 12.524V18.124ZM129.138 1.996C128.765 1.996 128.466 2.01467 128.242 2.052C128.037 2.07067 127.832 2.108 127.626 2.164V10.676C127.794 10.732 128.046 10.7693 128.382 10.788C128.718 10.788 128.989 10.788 129.194 10.788C129.698 10.788 130.184 10.704 130.65 10.536C131.117 10.368 131.528 10.1067 131.882 9.752C132.256 9.39733 132.554 8.94 132.778 8.38C133.002 7.82 133.114 7.148 133.114 6.364C133.114 4.87067 132.75 3.76933 132.022 3.06C131.294 2.35067 130.333 1.996 129.138 1.996ZM149.652 0.399999H157.156V1.464C156.839 1.66933 156.475 1.84667 156.064 1.996C155.654 2.12667 155.28 2.22 154.944 2.276L149.624 9.024C150.054 9.62133 150.558 10.3027 151.136 11.068C151.715 11.8147 152.331 12.5987 152.984 13.42C153.638 14.2227 154.31 15.044 155 15.884C155.691 16.7053 156.363 17.4893 157.016 18.236L158.36 19.048V20H153.488L152.368 19.216C151.92 18.656 151.444 18.04 150.94 17.368C150.455 16.6773 149.97 15.968 149.484 15.24C148.999 14.4933 148.523 13.7467 148.056 13C147.59 12.2533 147.151 11.5253 146.74 10.816H145.536V18.124C145.947 18.1987 146.32 18.3107 146.656 18.46C146.992 18.6093 147.282 18.768 147.524 18.936V20H139.04V18.936C139.414 18.7493 139.796 18.5907 140.188 18.46C140.58 18.3107 140.963 18.1987 141.336 18.124V2.276C140.907 2.22 140.487 2.11733 140.076 1.968C139.684 1.81867 139.339 1.65067 139.04 1.464V0.399999H147.524V1.464C147.282 1.61333 146.983 1.76267 146.628 1.912C146.292 2.06133 145.928 2.18267 145.536 2.276V9.388L147.188 8.996L151.696 2.276C151.323 2.20133 150.95 2.08933 150.576 1.94C150.222 1.772 149.914 1.61333 149.652 1.464V0.399999ZM164.947 20H158.031V18.936C158.33 18.7493 158.647 18.5907 158.983 18.46C159.338 18.3107 159.683 18.1987 160.019 18.124L167.243 0.0639997H169.315L176.343 18.124C176.717 18.1987 177.09 18.3107 177.463 18.46C177.837 18.5907 178.163 18.7493 178.443 18.936V20H169.679V18.936C170.034 18.768 170.417 18.6093 170.827 18.46C171.238 18.3107 171.63 18.1987 172.003 18.124L170.379 13.672H164.163L162.511 18.124C163.37 18.236 164.182 18.5067 164.947 18.936V20ZM164.835 11.852H169.791L167.971 6.504L167.439 4.096H167.383L166.767 6.56L164.835 11.852Z" fill="white"/>
</svg>
